<mxfile host="app.diagrams.net" modified="2021-05-11T08:40:40.290Z" agent="5.0 (Windows NT 10.0; Win64; x64) AppleWebKit/537.36 (KHTML, like Gecko) Chrome/90.0.4430.93 Safari/537.36" etag="_1rjyJ7JYBeVnP4t07I4" version="14.6.10" type="github" pages="2">
  <diagram id="WGbYtp2I7hQmN5VS0vPb" name="Register a user">
    <mxGraphModel dx="1422" dy="772" grid="1" gridSize="10" guides="1" tooltips="1" connect="1" arrows="1" fold="1" page="1" pageScale="1" pageWidth="850" pageHeight="1100" math="0" shadow="0">
      <root>
        <mxCell id="k-vgpQ2rgIqrTTHoVK5a-0" />
        <mxCell id="k-vgpQ2rgIqrTTHoVK5a-1" parent="k-vgpQ2rgIqrTTHoVK5a-0" />
        <mxCell id="k-vgpQ2rgIqrTTHoVK5a-5" value="" style="edgeStyle=orthogonalEdgeStyle;rounded=0;orthogonalLoop=1;jettySize=auto;html=1;" parent="k-vgpQ2rgIqrTTHoVK5a-1" edge="1">
          <mxGeometry relative="1" as="geometry">
            <mxPoint x="66" y="80" as="sourcePoint" />
            <mxPoint x="156" y="80" as="targetPoint" />
          </mxGeometry>
        </mxCell>
        <mxCell id="k-vgpQ2rgIqrTTHoVK5a-4" value="Actor" style="shape=umlActor;verticalLabelPosition=bottom;verticalAlign=top;html=1;outlineConnect=0;" parent="k-vgpQ2rgIqrTTHoVK5a-1" vertex="1">
          <mxGeometry x="50" y="50" width="30" height="60" as="geometry" />
        </mxCell>
        <mxCell id="i4KV9_NKAtFvnbF7cidu-4" value="" style="edgeStyle=orthogonalEdgeStyle;rounded=0;orthogonalLoop=1;jettySize=auto;html=1;" parent="k-vgpQ2rgIqrTTHoVK5a-1" target="i4KV9_NKAtFvnbF7cidu-3" edge="1">
          <mxGeometry relative="1" as="geometry">
            <mxPoint x="538" y="320" as="sourcePoint" />
          </mxGeometry>
        </mxCell>
        <mxCell id="i4KV9_NKAtFvnbF7cidu-0" value="" style="rounded=0;whiteSpace=wrap;html=1;direction=south;" parent="k-vgpQ2rgIqrTTHoVK5a-1" vertex="1">
          <mxGeometry x="500" y="40" width="80" height="280" as="geometry" />
        </mxCell>
        <mxCell id="i4KV9_NKAtFvnbF7cidu-1" value="User Service" style="text;html=1;strokeColor=none;fillColor=none;align=center;verticalAlign=middle;whiteSpace=wrap;rounded=0;" parent="k-vgpQ2rgIqrTTHoVK5a-1" vertex="1">
          <mxGeometry x="518" y="170" width="40" height="20" as="geometry" />
        </mxCell>
        <mxCell id="i4KV9_NKAtFvnbF7cidu-2" value="" style="shape=cylinder3;whiteSpace=wrap;html=1;boundedLbl=1;backgroundOutline=1;size=15;" parent="k-vgpQ2rgIqrTTHoVK5a-1" vertex="1">
          <mxGeometry x="510" y="370" width="60" height="80" as="geometry" />
        </mxCell>
        <mxCell id="i4KV9_NKAtFvnbF7cidu-3" value="User Data" style="text;html=1;strokeColor=none;fillColor=none;align=center;verticalAlign=middle;whiteSpace=wrap;rounded=0;" parent="k-vgpQ2rgIqrTTHoVK5a-1" vertex="1">
          <mxGeometry x="518" y="410" width="40" height="20" as="geometry" />
        </mxCell>
        <mxCell id="i4KV9_NKAtFvnbF7cidu-5" value="register user against a tenantid/s" style="text;html=1;strokeColor=none;fillColor=none;align=center;verticalAlign=middle;whiteSpace=wrap;rounded=0;" parent="k-vgpQ2rgIqrTTHoVK5a-1" vertex="1">
          <mxGeometry x="518" y="90" width="40" height="20" as="geometry" />
        </mxCell>
        <mxCell id="i4KV9_NKAtFvnbF7cidu-13" value="register&lt;br&gt;Company" style="text;html=1;strokeColor=none;fillColor=none;align=center;verticalAlign=middle;whiteSpace=wrap;rounded=0;" parent="k-vgpQ2rgIqrTTHoVK5a-1" vertex="1">
          <mxGeometry x="90" y="70" width="40" height="20" as="geometry" />
        </mxCell>
        <mxCell id="i4KV9_NKAtFvnbF7cidu-16" value="" style="edgeStyle=orthogonalEdgeStyle;rounded=0;orthogonalLoop=1;jettySize=auto;html=1;" parent="k-vgpQ2rgIqrTTHoVK5a-1" source="i4KV9_NKAtFvnbF7cidu-14" target="i4KV9_NKAtFvnbF7cidu-15" edge="1">
          <mxGeometry relative="1" as="geometry" />
        </mxCell>
        <mxCell id="i4KV9_NKAtFvnbF7cidu-20" style="edgeStyle=orthogonalEdgeStyle;rounded=0;orthogonalLoop=1;jettySize=auto;html=1;entryX=0.5;entryY=1;entryDx=0;entryDy=0;" parent="k-vgpQ2rgIqrTTHoVK5a-1" source="i4KV9_NKAtFvnbF7cidu-14" target="i4KV9_NKAtFvnbF7cidu-0" edge="1">
          <mxGeometry relative="1" as="geometry" />
        </mxCell>
        <mxCell id="i4KV9_NKAtFvnbF7cidu-14" value="" style="rounded=0;whiteSpace=wrap;html=1;direction=south;" parent="k-vgpQ2rgIqrTTHoVK5a-1" vertex="1">
          <mxGeometry x="160" y="40" width="120" height="280" as="geometry" />
        </mxCell>
        <mxCell id="i4KV9_NKAtFvnbF7cidu-15" value="" style="shape=cylinder3;whiteSpace=wrap;html=1;boundedLbl=1;backgroundOutline=1;size=15;" parent="k-vgpQ2rgIqrTTHoVK5a-1" vertex="1">
          <mxGeometry x="180" y="370" width="60" height="80" as="geometry" />
        </mxCell>
        <mxCell id="i4KV9_NKAtFvnbF7cidu-17" value="Config data" style="text;html=1;strokeColor=none;fillColor=none;align=center;verticalAlign=middle;whiteSpace=wrap;rounded=0;" parent="k-vgpQ2rgIqrTTHoVK5a-1" vertex="1">
          <mxGeometry x="190" y="410" width="40" height="20" as="geometry" />
        </mxCell>
        <mxCell id="i4KV9_NKAtFvnbF7cidu-18" value="Configuration&lt;br&gt;Service" style="text;html=1;strokeColor=none;fillColor=none;align=center;verticalAlign=middle;whiteSpace=wrap;rounded=0;" parent="k-vgpQ2rgIqrTTHoVK5a-1" vertex="1">
          <mxGeometry x="190" y="280" width="40" height="20" as="geometry" />
        </mxCell>
        <mxCell id="i4KV9_NKAtFvnbF7cidu-19" value="Assign Tenant id and secret" style="text;html=1;strokeColor=none;fillColor=none;align=center;verticalAlign=middle;whiteSpace=wrap;rounded=0;" parent="k-vgpQ2rgIqrTTHoVK5a-1" vertex="1">
          <mxGeometry x="190" y="70" width="40" height="20" as="geometry" />
        </mxCell>
        <mxCell id="i4KV9_NKAtFvnbF7cidu-21" value="Load roles and service accesses" style="text;html=1;strokeColor=none;fillColor=none;align=center;verticalAlign=middle;whiteSpace=wrap;rounded=0;" parent="k-vgpQ2rgIqrTTHoVK5a-1" vertex="1">
          <mxGeometry x="190" y="140" width="40" height="20" as="geometry" />
        </mxCell>
        <mxCell id="i4KV9_NKAtFvnbF7cidu-22" value="Call register user" style="text;html=1;strokeColor=none;fillColor=none;align=center;verticalAlign=middle;whiteSpace=wrap;rounded=0;" parent="k-vgpQ2rgIqrTTHoVK5a-1" vertex="1">
          <mxGeometry x="330" y="160" width="110" height="20" as="geometry" />
        </mxCell>
      </root>
    </mxGraphModel>
  </diagram>
  <diagram id="f8_L_EfyixUUC7JVE0zl" name="Auth a user">
    <mxGraphModel dx="1422" dy="772" grid="1" gridSize="10" guides="1" tooltips="1" connect="1" arrows="1" fold="1" page="1" pageScale="1" pageWidth="850" pageHeight="1100" math="0" shadow="0">
      <root>
        <mxCell id="0" />
        <mxCell id="1" parent="0" />
        <mxCell id="upAZHQhvYbK1pT-DLLbZ-2" value="" style="endArrow=classic;html=1;rounded=0;edgeStyle=orthogonalEdgeStyle;" parent="1" edge="1">
          <mxGeometry relative="1" as="geometry">
            <mxPoint x="80" y="149.5" as="sourcePoint" />
            <mxPoint x="180" y="149.5" as="targetPoint" />
          </mxGeometry>
        </mxCell>
        <mxCell id="upAZHQhvYbK1pT-DLLbZ-3" value="TenantId&lt;br&gt;secrete" style="edgeLabel;resizable=0;html=1;align=center;verticalAlign=middle;" parent="upAZHQhvYbK1pT-DLLbZ-2" connectable="0" vertex="1">
          <mxGeometry relative="1" as="geometry" />
        </mxCell>
        <mxCell id="qTd9H3Z8LBFXoMIJJ0yk-1" value="" style="endArrow=classic;html=1;rounded=0;edgeStyle=orthogonalEdgeStyle;entryX=0.144;entryY=1;entryDx=0;entryDy=0;entryPerimeter=0;" parent="1" target="qTd9H3Z8LBFXoMIJJ0yk-8" edge="1">
          <mxGeometry relative="1" as="geometry">
            <mxPoint x="260" y="180" as="sourcePoint" />
            <mxPoint x="360" y="180" as="targetPoint" />
          </mxGeometry>
        </mxCell>
        <mxCell id="-O_zGx2HVEAGHIHj_3bS-3" style="edgeStyle=orthogonalEdgeStyle;rounded=0;orthogonalLoop=1;jettySize=auto;html=1;entryX=0.64;entryY=0.013;entryDx=0;entryDy=0;entryPerimeter=0;" parent="1" source="qTd9H3Z8LBFXoMIJJ0yk-5" target="qTd9H3Z8LBFXoMIJJ0yk-8" edge="1">
          <mxGeometry relative="1" as="geometry">
            <mxPoint x="510" y="270" as="targetPoint" />
            <Array as="points">
              <mxPoint x="570" y="210" />
              <mxPoint x="490" y="210" />
              <mxPoint x="490" y="270" />
            </Array>
          </mxGeometry>
        </mxCell>
        <mxCell id="qTd9H3Z8LBFXoMIJJ0yk-5" value="" style="shape=cylinder3;whiteSpace=wrap;html=1;boundedLbl=1;backgroundOutline=1;size=15;" parent="1" vertex="1">
          <mxGeometry x="540" y="110" width="60" height="80" as="geometry" />
        </mxCell>
        <mxCell id="qTd9H3Z8LBFXoMIJJ0yk-6" value="" style="endArrow=classic;html=1;rounded=0;edgeStyle=orthogonalEdgeStyle;" parent="1" edge="1">
          <mxGeometry relative="1" as="geometry">
            <mxPoint x="440" y="149.5" as="sourcePoint" />
            <mxPoint x="540" y="149.5" as="targetPoint" />
          </mxGeometry>
        </mxCell>
        <mxCell id="qTd9H3Z8LBFXoMIJJ0yk-7" value="Get config" style="edgeLabel;resizable=0;html=1;align=center;verticalAlign=middle;" parent="qTd9H3Z8LBFXoMIJJ0yk-6" connectable="0" vertex="1">
          <mxGeometry relative="1" as="geometry" />
        </mxCell>
        <mxCell id="qTd9H3Z8LBFXoMIJJ0yk-19" value="" style="edgeStyle=orthogonalEdgeStyle;rounded=0;orthogonalLoop=1;jettySize=auto;html=1;entryX=0.75;entryY=0;entryDx=0;entryDy=0;" parent="1" source="qTd9H3Z8LBFXoMIJJ0yk-8" target="qTd9H3Z8LBFXoMIJJ0yk-10" edge="1">
          <mxGeometry relative="1" as="geometry">
            <Array as="points">
              <mxPoint x="290" y="320" />
              <mxPoint x="290" y="290" />
              <mxPoint x="260" y="290" />
            </Array>
          </mxGeometry>
        </mxCell>
        <mxCell id="qTd9H3Z8LBFXoMIJJ0yk-8" value="" style="rounded=0;whiteSpace=wrap;html=1;direction=south;" parent="1" vertex="1">
          <mxGeometry x="360" y="110" width="80" height="250" as="geometry" />
        </mxCell>
        <mxCell id="qTd9H3Z8LBFXoMIJJ0yk-9" value="Configuration&lt;br&gt;service" style="text;html=1;strokeColor=none;fillColor=none;align=center;verticalAlign=middle;whiteSpace=wrap;rounded=0;fontStyle=1" parent="1" vertex="1">
          <mxGeometry x="380" y="210" width="40" height="20" as="geometry" />
        </mxCell>
        <mxCell id="qTd9H3Z8LBFXoMIJJ0yk-21" style="edgeStyle=orthogonalEdgeStyle;rounded=0;orthogonalLoop=1;jettySize=auto;html=1;startArrow=none;" parent="1" source="qTd9H3Z8LBFXoMIJJ0yk-22" edge="1">
          <mxGeometry relative="1" as="geometry">
            <mxPoint x="70" y="150" as="targetPoint" />
            <Array as="points" />
          </mxGeometry>
        </mxCell>
        <mxCell id="qTd9H3Z8LBFXoMIJJ0yk-10" value="" style="rounded=0;whiteSpace=wrap;html=1;direction=south;" parent="1" vertex="1">
          <mxGeometry x="180" y="110" width="80" height="250" as="geometry" />
        </mxCell>
        <mxCell id="qTd9H3Z8LBFXoMIJJ0yk-11" value="User service" style="text;html=1;strokeColor=none;fillColor=none;align=center;verticalAlign=middle;whiteSpace=wrap;rounded=0;fontStyle=1" parent="1" vertex="1">
          <mxGeometry x="200" y="240" width="40" height="20" as="geometry" />
        </mxCell>
        <mxCell id="qTd9H3Z8LBFXoMIJJ0yk-13" value="Call&lt;br&gt;GetConfig by&lt;br&gt;Tenant" style="edgeLabel;resizable=0;html=1;align=center;verticalAlign=middle;" parent="1" connectable="0" vertex="1">
          <mxGeometry x="220" y="190" as="geometry" />
        </mxCell>
        <mxCell id="qTd9H3Z8LBFXoMIJJ0yk-18" value="Return data" style="text;html=1;strokeColor=none;fillColor=none;align=center;verticalAlign=middle;whiteSpace=wrap;rounded=0;" parent="1" vertex="1">
          <mxGeometry x="380" y="310" width="40" height="20" as="geometry" />
        </mxCell>
        <mxCell id="qTd9H3Z8LBFXoMIJJ0yk-20" value="load claims" style="text;html=1;strokeColor=none;fillColor=none;align=center;verticalAlign=middle;whiteSpace=wrap;rounded=0;" parent="1" vertex="1">
          <mxGeometry x="195" y="310" width="50" height="50" as="geometry" />
        </mxCell>
        <mxCell id="qTd9H3Z8LBFXoMIJJ0yk-22" value="Jwt returned&lt;br&gt;" style="text;html=1;strokeColor=none;fillColor=none;align=center;verticalAlign=middle;whiteSpace=wrap;rounded=0;" parent="1" vertex="1">
          <mxGeometry x="100" y="290" width="40" height="20" as="geometry" />
        </mxCell>
        <mxCell id="qTd9H3Z8LBFXoMIJJ0yk-23" value="" style="edgeStyle=orthogonalEdgeStyle;rounded=0;orthogonalLoop=1;jettySize=auto;html=1;endArrow=none;" parent="1" source="qTd9H3Z8LBFXoMIJJ0yk-10" target="qTd9H3Z8LBFXoMIJJ0yk-22" edge="1">
          <mxGeometry relative="1" as="geometry">
            <mxPoint x="70" y="150" as="targetPoint" />
            <mxPoint x="180" y="300" as="sourcePoint" />
            <Array as="points">
              <mxPoint x="120" y="320" />
            </Array>
          </mxGeometry>
        </mxCell>
        <mxCell id="-O_zGx2HVEAGHIHj_3bS-1" value="Authenticate secretes&lt;br&gt;" style="text;html=1;strokeColor=none;fillColor=none;align=center;verticalAlign=middle;whiteSpace=wrap;rounded=0;" parent="1" vertex="1">
          <mxGeometry x="200" y="290" width="40" height="20" as="geometry" />
        </mxCell>
        <mxCell id="-O_zGx2HVEAGHIHj_3bS-2" value="Get config by tenant id" style="text;html=1;strokeColor=none;fillColor=none;align=center;verticalAlign=middle;whiteSpace=wrap;rounded=0;" parent="1" vertex="1">
          <mxGeometry x="380" y="140" width="40" height="20" as="geometry" />
        </mxCell>
        <mxCell id="-O_zGx2HVEAGHIHj_3bS-4" value="Return data" style="text;html=1;strokeColor=none;fillColor=none;align=center;verticalAlign=middle;whiteSpace=wrap;rounded=0;" parent="1" vertex="1">
          <mxGeometry x="500" y="210" width="70" height="20" as="geometry" />
        </mxCell>
        <mxCell id="-O_zGx2HVEAGHIHj_3bS-5" value="Check tenant&lt;br&gt;exists" style="text;html=1;strokeColor=none;fillColor=none;align=center;verticalAlign=middle;whiteSpace=wrap;rounded=0;" parent="1" vertex="1">
          <mxGeometry x="200" y="130" width="40" height="20" as="geometry" />
        </mxCell>
        <mxCell id="-O_zGx2HVEAGHIHj_3bS-7" value="" style="edgeStyle=orthogonalEdgeStyle;rounded=0;orthogonalLoop=1;jettySize=auto;html=1;" parent="1" source="-O_zGx2HVEAGHIHj_3bS-6" edge="1">
          <mxGeometry relative="1" as="geometry">
            <mxPoint x="220" y="110" as="targetPoint" />
          </mxGeometry>
        </mxCell>
        <mxCell id="-O_zGx2HVEAGHIHj_3bS-6" value="" style="shape=cylinder3;whiteSpace=wrap;html=1;boundedLbl=1;backgroundOutline=1;size=15;" parent="1" vertex="1">
          <mxGeometry x="190" y="10" width="60" height="80" as="geometry" />
        </mxCell>
        <mxCell id="-O_zGx2HVEAGHIHj_3bS-8" value="User Data" style="text;html=1;strokeColor=none;fillColor=none;align=center;verticalAlign=middle;whiteSpace=wrap;rounded=0;" parent="1" vertex="1">
          <mxGeometry x="200" y="50" width="40" height="20" as="geometry" />
        </mxCell>
        <mxCell id="-O_zGx2HVEAGHIHj_3bS-9" value="Config Data" style="text;html=1;strokeColor=none;fillColor=none;align=center;verticalAlign=middle;whiteSpace=wrap;rounded=0;" parent="1" vertex="1">
          <mxGeometry x="550" y="150" width="40" height="20" as="geometry" />
        </mxCell>
        <mxCell id="87csL7NPoF4NQvMgEirR-1" value="Compare secrets" style="text;html=1;strokeColor=none;fillColor=none;align=center;verticalAlign=middle;whiteSpace=wrap;rounded=0;" vertex="1" parent="1">
          <mxGeometry x="380" y="260" width="40" height="20" as="geometry" />
        </mxCell>
      </root>
    </mxGraphModel>
  </diagram>
</mxfile>
